<svg width="655" height="191" viewBox="0 0 655 191" fill="none" xmlns="http://www.w3.org/2000/svg">
<g clip-path="url(#clip0_960_13342)">
<g filter="url(#filter0_d_960_13342)">
<rect y="36.9766" width="103" height="88" rx="24" transform="rotate(-5 0 36.9766)" fill="white" shape-rendering="crispEdges"/>
<rect x="-0.270838" y="36.7493" width="103.5" height="88.5" rx="24.25" transform="rotate(-5 -0.270838 36.7493)" stroke="#F3F4F6" stroke-width="0.5" shape-rendering="crispEdges"/>
<path fill-rule="evenodd" clip-rule="evenodd" d="M55.439 52.202L50.6572 52.6203L51.1981 58.8026L46.4441 54.8135L43.3587 58.4905L48.1127 62.4796L41.9304 63.0205L42.3488 67.8022L48.5311 67.2614L44.542 72.0153L48.219 75.1007L52.2081 70.3467L52.749 76.529L57.5307 76.1107L56.9898 69.9284L61.7439 73.9175L64.8292 70.2405L60.0752 66.2514L66.2575 65.7105L65.8391 60.9288L59.6568 61.4696L63.6459 56.7156L59.969 53.6303L55.9798 58.3843L55.439 52.202Z" fill="#2D6BD9"/>
<path d="M23.5415 98.5152L28.0722 98.1188L27.7375 94.2934L28.7775 94.2024L29.517 102.654L28.4769 102.745L28.1558 99.0751L23.6252 99.4715L23.9462 103.141L22.9062 103.232L22.1668 94.7808L23.2068 94.6898L23.5415 98.5152ZM31.899 99.6511C31.9474 99.9279 32.0258 100.182 32.1344 100.413C32.2502 100.636 32.3955 100.828 32.5703 100.99C32.745 101.151 32.9524 101.273 33.1926 101.357C33.4401 101.432 33.7192 101.455 34.03 101.428C34.1814 101.415 34.3358 101.389 34.4931 101.351C34.6577 101.305 34.8089 101.244 34.9468 101.167C35.084 101.083 35.2034 100.98 35.3053 100.859C35.4071 100.737 35.4789 100.595 35.5207 100.43L36.5608 100.339C36.5155 100.649 36.415 100.922 36.2592 101.161C36.1114 101.399 35.9242 101.6 35.6977 101.764C35.4791 101.928 35.2295 102.058 34.9489 102.155C34.6675 102.244 34.3794 102.301 34.0846 102.327C33.5825 102.371 33.1372 102.329 32.7487 102.203C32.3681 102.075 32.0421 101.883 31.7707 101.626C31.4985 101.36 31.2856 101.038 31.1319 100.658C30.9775 100.27 30.8797 99.8406 30.8385 99.3704C30.7974 98.9002 30.8235 98.4643 30.9169 98.0626C31.0175 97.6523 31.1788 97.2929 31.4007 96.9844C31.6227 96.6758 31.906 96.4262 32.2507 96.2354C32.5954 96.0447 33.0148 95.9277 33.5089 95.8844C34.011 95.8405 34.454 95.9021 34.8381 96.0693C35.2221 96.2365 35.54 96.4737 35.7917 96.7809C36.0427 97.0802 36.2285 97.4132 36.3489 97.7801C36.4773 98.1463 36.5475 98.4895 36.5594 98.8097C36.5657 98.8814 36.568 98.9535 36.5663 99.0259C36.5726 99.0976 36.5749 99.1697 36.5732 99.2421L31.899 99.6511ZM35.4916 98.4454C35.429 97.9128 35.2236 97.4931 34.8755 97.1863C34.5275 96.8795 34.0865 96.7494 33.5525 96.7961C33.2576 96.8219 33.0028 96.8924 32.788 97.0075C32.5732 97.1227 32.3975 97.2706 32.2607 97.4512C32.1239 97.6318 32.0214 97.8375 31.9533 98.0683C31.8845 98.2912 31.8485 98.5232 31.8456 98.7644L35.4916 98.4454ZM41.4275 101.612L40.8763 95.3121L41.8924 95.2232L42.134 97.9847L45.29 97.7086L45.0484 94.9471L46.0645 94.8582L46.6157 101.158L45.5996 101.247L45.3684 98.6052L42.2125 98.8813L42.4436 101.523L41.4275 101.612ZM52.2999 99.8538C52.1805 100.049 52.038 100.21 51.8724 100.337C51.7068 100.464 51.5312 100.568 51.3455 100.648C51.1678 100.728 50.9843 100.788 50.7952 100.829C50.614 100.869 50.4317 100.897 50.2484 100.913C49.9535 100.938 49.6715 100.927 49.4022 100.878C49.1329 100.83 48.8837 100.735 48.6546 100.594C48.4334 100.453 48.2487 100.268 48.1002 100.041C47.9598 99.8119 47.8763 99.5462 47.8498 99.2433C47.8184 98.8847 47.856 98.5803 47.9626 98.33C48.0765 98.0711 48.2384 97.8562 48.4483 97.6852C48.6582 97.5143 48.9041 97.3884 49.1862 97.3075C49.4755 97.2179 49.7835 97.1589 50.1102 97.1303L51.9632 96.9682C51.9164 96.4342 51.7639 96.0219 51.5056 95.7313C51.2466 95.4328 50.8415 95.2996 50.2902 95.3318C49.9554 95.361 49.6654 95.4426 49.4202 95.5765C49.1749 95.7104 49.0156 95.909 48.9423 96.1724L47.8545 96.2676C47.8851 95.9758 47.9755 95.723 48.1254 95.5091C48.2746 95.2872 48.4592 95.1025 48.6792 94.9547C48.8984 94.799 49.1408 94.6774 49.4061 94.59C49.6715 94.5025 49.9397 94.4469 50.2107 94.4232C50.6809 94.3821 51.0823 94.4273 51.4151 94.5588C51.7551 94.6816 52.0358 94.8618 52.2574 95.0994C52.4783 95.329 52.6442 95.6197 52.7553 95.9713C52.8664 96.323 52.9414 96.722 52.9805 97.1683L53.2785 100.575L52.4298 100.65L52.2999 99.8538ZM50.9257 97.9142C50.7344 97.9309 50.5116 97.9544 50.2573 97.9847C50.0102 98.0063 49.7732 98.0512 49.5463 98.1192C49.3193 98.1872 49.1408 98.3032 49.0106 98.4672C48.8883 98.6305 48.838 98.8356 48.8596 99.0827C48.8757 99.266 48.9251 99.4183 49.008 99.5395C49.0909 99.6607 49.1959 99.76 49.3232 99.8372C49.4583 99.9137 49.6074 99.9649 49.7702 99.9908C49.9331 100.017 50.0982 100.022 50.2656 100.008C50.8633 99.9554 51.321 99.7708 51.6386 99.4539C51.9634 99.1284 52.1054 98.6863 52.0646 98.1277L52.0374 97.8169L50.9257 97.9142ZM57.0175 92.2738C57.3522 92.2445 57.6136 92.1574 57.8017 92.0124C57.9978 91.8668 58.0818 91.6346 58.0539 91.3158L58.9864 91.2342C59.0206 91.8094 58.866 92.2446 58.5224 92.5396C58.1868 92.834 57.7042 93.0087 57.0746 93.0638C56.445 93.1189 55.9394 93.0306 55.5577 92.799C55.184 92.5667 54.9641 92.1643 54.898 91.5919L55.8304 91.5103C55.8663 91.8284 55.9894 92.0425 56.1998 92.1526C56.4102 92.2627 56.6828 92.3031 57.0175 92.2738ZM55.845 100.351L54.8528 100.438L54.3016 94.1376L55.3177 94.0487L55.7402 98.8782C55.7863 98.7618 55.8515 98.6356 55.936 98.4997C56.0198 98.3559 56.0864 98.2457 56.1359 98.1691L58.8203 93.7423L59.8245 93.6544L60.3757 99.9543L59.3596 100.043L58.937 95.2137C58.8837 95.3388 58.8221 95.4606 58.7522 95.5792C58.6895 95.6891 58.6298 95.7866 58.573 95.8719L55.845 100.351ZM62.2614 94.8385C62.2492 94.6067 62.2329 94.3752 62.2127 94.1441C62.1925 93.913 62.1723 93.6819 62.152 93.4508L66.623 93.0596L67.0968 98.4749L67.9216 98.4028L68.1684 101.224L67.1882 101.31L67.0187 99.3731L62.4163 99.7758L62.5857 101.712L61.6055 101.798L61.3587 98.9769C61.6775 98.9491 61.9159 98.7836 62.0741 98.4807C62.1718 98.3115 62.2396 98.0767 62.2775 97.7763C62.3148 97.4679 62.3347 97.1449 62.3373 96.8074C62.3451 96.4373 62.3373 96.0726 62.3139 95.7133C62.2977 95.3453 62.2802 95.0537 62.2614 94.8385ZM65.6853 94.0451L63.1988 94.2626C63.2201 94.598 63.2449 94.9733 63.2732 95.3884C63.3015 95.8035 63.3194 96.1915 63.3268 96.5522C63.3328 96.7123 63.3362 96.8886 63.337 97.0813C63.3371 97.266 63.3259 97.4597 63.3035 97.6624C63.2884 97.8565 63.2536 98.0563 63.1993 98.2618C63.153 98.4666 63.0774 98.6579 62.9725 98.8357L66.0806 98.5638L65.6853 94.0451ZM69.6066 96.3521C69.6549 96.6289 69.7333 96.8831 69.8419 97.1145C69.9578 97.3372 70.1031 97.5293 70.2778 97.6907C70.4525 97.8521 70.66 97.9745 70.9002 98.0578C71.1476 98.1326 71.4267 98.1563 71.7376 98.1291C71.889 98.1159 72.0433 98.0903 72.2006 98.0525C72.3652 98.006 72.5164 97.9445 72.6543 97.8682C72.7915 97.784 72.911 97.6812 73.0128 97.5598C73.1146 97.4385 73.1864 97.2957 73.2283 97.1314L74.2683 97.0404C74.2231 97.3495 74.1225 97.6233 73.9667 97.8618C73.8189 98.0996 73.6317 98.3007 73.4052 98.4651C73.1866 98.6287 72.937 98.759 72.6564 98.8558C72.3751 98.9447 72.087 99.002 71.7921 99.0278C71.29 99.0717 70.8447 99.0304 70.4562 98.9038C70.0756 98.7764 69.7496 98.5841 69.4782 98.3268C69.206 98.0615 68.9931 97.7388 68.8394 97.3588C68.685 96.9708 68.5872 96.5417 68.5461 96.0715C68.5049 95.6013 68.531 95.1653 68.6244 94.7637C68.725 94.3533 68.8863 93.9939 69.1083 93.6854C69.3302 93.3769 69.6135 93.1272 69.9582 92.9365C70.3029 92.7457 70.7223 92.6287 71.2164 92.5855C71.7185 92.5415 72.1615 92.6032 72.5456 92.7703C72.9296 92.9375 73.2475 93.1747 73.4992 93.4819C73.7503 93.7812 73.936 94.1142 74.0564 94.4811C74.1848 94.8474 74.255 95.1905 74.267 95.5107C74.2732 95.5824 74.2755 95.6545 74.2738 95.7269C74.2801 95.7987 74.2824 95.8707 74.2807 95.9432L69.6066 96.3521ZM73.1992 95.1464C73.1365 94.6138 72.9311 94.1941 72.5831 93.8873C72.235 93.5805 71.794 93.4504 71.26 93.4971C70.9652 93.5229 70.7103 93.5934 70.4955 93.7086C70.2808 93.8237 70.105 93.9716 69.9682 94.1522C69.8314 94.3328 69.729 94.5385 69.6608 94.7693C69.592 94.9922 69.5561 95.2242 69.5531 95.4654L73.1992 95.1464ZM75.913 98.595L75.3618 92.2951L76.3779 92.2062L76.6195 94.9676L79.7754 94.6915L79.5338 91.9301L80.55 91.8412L81.1011 98.1411L80.085 98.23L79.8539 95.5881L76.6979 95.8642L76.9291 98.5061L75.913 98.595ZM84.9233 91.3863C85.4254 91.3423 85.8667 91.384 86.2472 91.5114C86.6278 91.6387 86.9541 91.835 87.2263 92.1003C87.5064 92.3649 87.7237 92.6912 87.8781 93.0792C88.0397 93.4585 88.1411 93.8833 88.1823 94.3535C88.2234 94.8237 88.1977 95.2636 88.105 95.6733C88.0196 96.0742 87.862 96.4293 87.6321 96.7385C87.4094 97.0391 87.1178 97.2855 86.7571 97.4776C86.3965 97.6698 85.9652 97.7878 85.4631 97.8317C84.961 97.8757 84.5157 97.8343 84.1272 97.7077C83.7466 97.5804 83.4167 97.3884 83.1372 97.1318C82.8651 96.8665 82.6482 96.5442 82.4865 96.1648C82.3321 95.7768 82.2343 95.3477 82.1932 94.8775C82.152 94.4073 82.1741 93.9717 82.2595 93.5707C82.3522 93.1611 82.5095 92.802 82.7314 92.4935C82.9614 92.1843 83.2566 91.9336 83.6173 91.7414C83.9779 91.5493 84.4132 91.4309 84.9233 91.3863ZM85.3846 96.9352C85.7273 96.9052 86.017 96.8196 86.2536 96.6785C86.4981 96.5366 86.6911 96.3551 86.8323 96.1339C86.9809 95.9041 87.0788 95.6466 87.1261 95.3614C87.1814 95.0755 87.1948 94.7692 87.1662 94.4424C87.1383 94.1236 87.0723 93.8283 86.9682 93.5563C86.8714 93.2757 86.7302 93.0391 86.5447 92.8465C86.3665 92.6453 86.1446 92.496 85.8792 92.3988C85.6216 92.3009 85.3215 92.2669 84.9788 92.2969C84.6362 92.3269 84.3465 92.4124 84.1099 92.5536C83.8733 92.6948 83.6807 92.8802 83.5322 93.1101C83.391 93.3312 83.293 93.5887 83.2384 93.8826C83.1911 94.1678 83.1814 94.4698 83.2093 94.7886C83.2379 95.1153 83.3002 95.4151 83.3964 95.6877C83.5005 95.9597 83.6416 96.1963 83.8198 96.3975C84.0053 96.5901 84.2268 96.7353 84.4843 96.8332C84.7418 96.9312 85.042 96.9652 85.3846 96.9352ZM89.9693 94.7151L89.3165 88.9059L90.4761 88.8045L90.842 94.6388L89.9693 94.7151ZM90.5246 95.9675C90.7238 95.9501 90.8971 96.0032 91.0444 96.1268C91.1998 96.2497 91.2865 96.4148 91.3046 96.622C91.3227 96.8292 91.266 97.0068 91.1344 97.1549C91.0108 97.3022 90.8493 97.3846 90.6501 97.402C90.4429 97.4202 90.2656 97.3674 90.1183 97.2438C89.9789 97.1195 89.9002 96.9537 89.882 96.7465C89.8639 96.5393 89.9127 96.3623 90.0283 96.2157C90.152 96.0684 90.3174 95.9856 90.5246 95.9675Z" fill="#454F5F"/>
</g>
<path fill-rule="evenodd" clip-rule="evenodd" d="M609.5 142H606.5V155.283L601.524 142.967L598.742 144.091L603.847 156.726L594.211 147.09L592.09 149.211L601.326 158.447L589.357 153.218L588.156 155.967L600.82 161.5H587V164.5H600.82L588.156 170.033L589.357 172.782L601.326 167.553L592.09 176.789L594.211 178.91L603.847 169.274L598.742 181.909L601.524 183.033L606.5 170.717V184H609.5V170.717L614.476 183.033L617.257 181.909L612.153 169.274L621.789 178.91L623.91 176.789L614.674 167.553L626.643 172.782L627.844 170.033L615.18 164.5H629V161.5H615.18L627.844 155.967L626.643 153.218L614.674 158.447L623.91 149.211L621.789 147.09L612.153 156.726L617.257 144.091L614.476 142.967L609.5 155.283V142Z" fill="#2D6BD9"/>
<g filter="url(#filter1_d_960_13342)">
<rect x="542.32" y="69.667" width="113" height="40" rx="20" transform="rotate(6 542.32 69.667)" fill="white" shape-rendering="crispEdges"/>
<rect x="542.098" y="69.3922" width="113.5" height="40.5" rx="20.25" transform="rotate(6 542.098 69.3922)" stroke="#F3F4F6" stroke-width="0.5" shape-rendering="crispEdges"/>
<path d="M555.53 97.0376L567.464 98.292L568.718 86.3577L556.784 85.1034L555.53 97.0376Z" fill="#454F5F"/>
<path d="M581.561 99.0571C580.681 98.9646 579.927 98.7405 579.299 98.385C578.673 98.0188 578.163 97.5577 577.771 97.0017C577.379 96.4457 577.109 95.8059 576.96 95.0823C576.81 94.3588 576.779 93.5833 576.866 92.7558C576.953 91.9284 577.145 91.1763 577.441 90.4996C577.739 89.8122 578.137 89.2374 578.636 88.775C579.135 88.3127 579.729 87.9728 580.416 87.7555C581.105 87.5276 581.89 87.4599 582.77 87.5525C583.64 87.6439 584.389 87.8727 585.015 88.2389C585.643 88.5944 586.152 89.0502 586.544 89.6062C586.937 90.1623 587.207 90.8073 587.355 91.5415C587.504 92.2651 587.535 93.0406 587.448 93.868C587.361 94.6955 587.169 95.4475 586.873 96.1243C586.577 96.801 586.179 97.3705 585.68 97.8329C585.181 98.2953 584.587 98.6404 583.898 98.8683C583.21 99.0856 582.431 99.1485 581.561 99.0571ZM582.638 88.8096C581.97 88.7393 581.379 88.8006 580.865 88.9933C580.353 89.1753 579.916 89.4565 579.554 89.8368C579.192 90.2171 578.903 90.6747 578.686 91.2096C578.47 91.7339 578.33 92.2983 578.267 92.903C578.203 93.5077 578.217 94.0883 578.309 94.645C578.411 95.2027 578.599 95.7052 578.874 96.1523C579.149 96.5995 579.518 96.9707 579.98 97.266C580.454 97.5518 581.025 97.7298 581.693 97.8C582.362 97.8703 582.952 97.8144 583.465 97.6323C583.978 97.4396 584.41 97.1578 584.76 96.787C585.122 96.4068 585.405 95.9539 585.611 95.4285C585.827 94.9042 585.967 94.3344 586.032 93.7192C586.096 93.1039 586.078 92.5174 585.975 91.9596C585.885 91.3924 585.702 90.8905 585.426 90.4539C585.151 90.0068 584.782 89.6408 584.318 89.3562C583.856 89.0609 583.296 88.8787 582.638 88.8096ZM589.565 91.2912L590.917 91.4333L590.16 98.6416L593.31 98.9728L594.068 91.7645L595.421 91.9066L594.663 99.1149L597.845 99.4494L598.603 92.2411L599.956 92.3833L599.074 100.769L588.683 99.677L589.565 91.2912ZM602.529 101.132L601.208 100.993L602.09 92.6076L603.442 92.7497L602.766 99.1783C602.856 99.0376 602.974 98.8891 603.119 98.7327C603.265 98.5658 603.38 98.4385 603.465 98.3508L608.104 93.2398L609.441 93.3802L608.56 101.766L607.207 101.624L607.883 95.1953C607.781 95.3455 607.67 95.4893 607.548 95.6267C607.438 95.7545 607.335 95.8671 607.239 95.9642L602.529 101.132ZM612.388 95.6045C612.57 95.3984 612.776 95.2323 613.003 95.1061C613.232 94.9692 613.474 94.8606 613.729 94.7802C613.995 94.7009 614.258 94.6534 614.517 94.6377C614.787 94.6125 615.045 94.6128 615.289 94.6384C615.862 94.6986 616.356 94.8417 616.772 95.0678C617.199 95.295 617.543 95.5939 617.804 95.9646C618.077 96.3258 618.269 96.7481 618.379 97.2316C618.489 97.7151 618.514 98.2432 618.453 98.8161C618.393 99.3889 618.252 99.9157 618.03 100.396C617.809 100.867 617.515 101.265 617.148 101.591C616.792 101.918 616.364 102.163 615.865 102.325C615.377 102.477 614.825 102.521 614.21 102.456C613.51 102.383 612.934 102.199 612.482 101.905C612.031 101.6 611.679 101.225 611.426 100.78C611.184 100.326 611.025 99.7996 610.948 99.2017C610.871 98.6037 610.857 98.0231 610.906 97.4597C610.903 97.2878 610.928 96.9472 610.981 96.438C611.046 95.9193 611.122 95.4553 611.208 95.0461C611.295 94.6262 611.407 94.225 611.543 93.8425C611.692 93.4506 611.873 93.1103 612.085 92.8216C612.425 92.3425 612.825 92.0038 613.286 91.8055C613.757 91.6084 614.284 91.4921 614.867 91.4569C615.051 91.444 615.46 91.428 616.095 91.409C616.741 91.3804 617.183 91.3624 617.42 91.3551C617.623 91.3551 617.844 91.3515 618.08 91.3442C618.329 91.3274 618.572 91.31 618.81 91.2921L618.679 92.5333C618.515 92.5696 618.313 92.5967 618.076 92.6146C617.839 92.6219 617.57 92.6259 617.27 92.6265C617.054 92.636 616.828 92.6444 616.592 92.6517C616.367 92.6495 616.13 92.6515 615.883 92.6577C615.648 92.6544 615.282 92.6642 614.786 92.6872C614.42 92.7023 614.112 92.7718 613.863 92.8958C613.625 93.0209 613.408 93.1966 613.213 93.4227C612.98 93.6986 612.793 94.0436 612.653 94.4579C612.525 94.8627 612.436 95.2449 612.388 95.6045ZM614.367 101.266C614.759 101.308 615.112 101.27 615.425 101.152C615.748 101.036 616.024 100.861 616.252 100.628C616.491 100.396 616.681 100.115 616.823 99.787C616.965 99.4587 617.056 99.1036 617.096 98.7217C617.135 98.3504 617.113 97.9995 617.03 97.669C616.958 97.329 616.834 97.0317 616.657 96.7771C616.481 96.5119 616.256 96.3006 615.983 96.1432C615.711 95.9752 615.369 95.8695 614.955 95.826C614.572 95.7965 614.225 95.835 613.913 95.9417C613.602 96.0484 613.326 96.2179 613.087 96.4502C612.85 96.6719 612.66 96.9416 612.52 97.2593C612.38 97.5664 612.287 97.8944 612.239 98.2434C612.2 98.6147 612.211 98.9751 612.27 99.3246C612.342 99.6646 612.465 99.9725 612.64 100.248C612.815 100.524 613.043 100.752 613.324 100.932C613.616 101.112 613.964 101.224 614.367 101.266ZM619.855 102.953L620.737 94.5675L622.089 94.7096L621.71 98.3217L623.174 98.4756L626.036 95.1244L627.579 95.2866L624.359 98.9863L626.936 103.698L625.345 103.53L623.209 99.6698L621.586 99.4993L621.208 103.095L619.855 102.953ZM633.585 103.318C633.379 103.543 633.152 103.718 632.903 103.842C632.654 103.966 632.397 104.057 632.134 104.115C631.881 104.174 631.626 104.206 631.368 104.212C631.12 104.218 630.875 104.208 630.631 104.182C630.238 104.141 629.872 104.054 629.532 103.922C629.192 103.79 628.89 103.603 628.626 103.36C628.372 103.119 628.177 102.83 628.041 102.494C627.915 102.159 627.874 101.79 627.916 101.387C627.966 100.91 628.093 100.521 628.296 100.221C628.511 99.9107 628.777 99.6706 629.096 99.5002C629.414 99.3299 629.768 99.2277 630.158 99.1936C630.559 99.1499 630.977 99.151 631.412 99.1967L633.878 99.4559C633.953 98.7452 633.858 98.1668 633.594 97.7207C633.331 97.2641 632.835 96.9867 632.105 96.8885C631.66 96.8417 631.259 96.8747 630.904 96.9875C630.549 97.1004 630.29 97.3198 630.127 97.6459L628.679 97.4937C628.793 97.1196 628.976 96.8117 629.227 96.5699C629.478 96.3175 629.767 96.1226 630.093 95.9852C630.419 95.8372 630.767 95.7397 631.137 95.6927C631.506 95.6458 631.872 95.6413 632.232 95.6792C632.858 95.745 633.372 95.9062 633.774 96.163C634.188 96.4103 634.509 96.7176 634.739 97.0849C634.97 97.4416 635.113 97.8643 635.169 98.3528C635.225 98.8413 635.221 99.3826 635.159 99.9766L634.682 104.512L633.553 104.393L633.585 103.318ZM632.28 100.43C632.025 100.403 631.728 100.378 631.387 100.352C631.058 100.318 630.737 100.316 630.422 100.348C630.108 100.379 629.845 100.485 629.633 100.667C629.431 100.849 629.313 101.105 629.279 101.434C629.253 101.678 629.279 101.89 629.356 102.07C629.434 102.249 629.546 102.406 629.693 102.539C629.851 102.674 630.033 102.779 630.239 102.854C630.446 102.929 630.661 102.979 630.883 103.002C631.679 103.086 632.325 102.961 632.821 102.627C633.329 102.283 633.628 101.741 633.716 100.999L633.76 100.586L632.28 100.43Z" fill="#454F5F"/>
</g>
<path d="M215.823 6.008V130.68H237.071V150.904H215.823V187H193.551V150.904H95.247V134.264L183.823 6.008H215.823ZM122.127 130.68H193.551V26.232L122.127 130.68ZM397.279 96.632C397.279 108.237 396.084 119.587 393.695 130.68C391.476 141.773 387.636 151.672 382.175 160.376C376.714 168.909 369.46 175.821 360.415 181.112C351.37 186.403 340.106 189.048 326.623 189.048C312.97 189.048 301.62 186.403 292.575 181.112C283.53 175.821 276.276 168.909 270.815 160.376C265.354 151.672 261.514 141.944 259.295 131.192C257.076 120.44 255.967 108.92 255.967 96.632C255.967 84.344 257.076 72.824 259.295 62.072C261.514 51.1493 265.354 41.4213 270.815 32.888C276.276 24.3547 283.53 17.4427 292.575 12.152C301.62 6.69066 312.97 3.95999 326.623 3.95999C340.106 3.95999 351.37 6.60533 360.415 11.896C369.46 17.1867 376.714 24.184 382.175 32.888C387.636 41.592 391.476 51.4907 393.695 62.584C396.084 73.6773 397.279 85.0267 397.279 96.632ZM278.751 96.632C278.751 104.824 279.348 113.187 280.543 121.72C281.738 130.253 284.042 138.019 287.455 145.016C290.868 152.013 295.647 157.731 301.791 162.168C308.106 166.605 316.383 168.824 326.623 168.824C336.692 168.824 344.799 166.605 350.943 162.168C357.258 157.731 362.122 152.013 365.535 145.016C368.948 138.019 371.252 130.253 372.447 121.72C373.642 113.187 374.239 104.824 374.239 96.632C374.239 88.6107 373.642 80.3333 372.447 71.8C371.252 63.2667 368.948 55.5013 365.535 48.504C362.122 41.336 357.258 35.5333 350.943 31.096C344.799 26.488 336.692 24.184 326.623 24.184C316.383 24.184 308.106 26.488 301.791 31.096C295.647 35.5333 290.868 41.336 287.455 48.504C284.042 55.5013 281.738 63.2667 280.543 71.8C279.348 80.3333 278.751 88.6107 278.751 96.632ZM537.833 6.008V130.68H559.081V150.904H537.833V187H515.561V150.904H417.257V134.264L505.833 6.008H537.833ZM444.137 130.68H515.561V26.232L444.137 130.68Z" fill="#2D6BD9"/>
</g>
<defs>
<filter id="filter0_d_960_13342" x="-8" y="22" width="126.281" height="112.642" filterUnits="userSpaceOnUse" color-interpolation-filters="sRGB">
<feFlood flood-opacity="0" result="BackgroundImageFix"/>
<feColorMatrix in="SourceAlpha" type="matrix" values="0 0 0 0 0 0 0 0 0 0 0 0 0 0 0 0 0 0 127 0" result="hardAlpha"/>
<feOffset dy="2"/>
<feGaussianBlur stdDeviation="4"/>
<feComposite in2="hardAlpha" operator="out"/>
<feColorMatrix type="matrix" values="0 0 0 0 0.768627 0 0 0 0 0.792157 0 0 0 0 0.831373 0 0 0 0.24 0"/>
<feBlend mode="normal" in2="BackgroundImageFix" result="effect1_dropShadow_960_13342"/>
<feBlend mode="normal" in="SourceGraphic" in2="effect1_dropShadow_960_13342" result="shape"/>
</filter>
<filter id="filter1_d_960_13342" x="530.141" y="63.667" width="132.562" height="67.5928" filterUnits="userSpaceOnUse" color-interpolation-filters="sRGB">
<feFlood flood-opacity="0" result="BackgroundImageFix"/>
<feColorMatrix in="SourceAlpha" type="matrix" values="0 0 0 0 0 0 0 0 0 0 0 0 0 0 0 0 0 0 127 0" result="hardAlpha"/>
<feOffset dy="2"/>
<feGaussianBlur stdDeviation="4"/>
<feComposite in2="hardAlpha" operator="out"/>
<feColorMatrix type="matrix" values="0 0 0 0 0.768627 0 0 0 0 0.792157 0 0 0 0 0.831373 0 0 0 0.24 0"/>
<feBlend mode="normal" in2="BackgroundImageFix" result="effect1_dropShadow_960_13342"/>
<feBlend mode="normal" in="SourceGraphic" in2="effect1_dropShadow_960_13342" result="shape"/>
</filter>
<clipPath id="clip0_960_13342">
<rect width="655" height="191" fill="white"/>
</clipPath>
</defs>
</svg>
