<svg width="24" height="24" viewBox="0 0 24 24" fill="none" xmlns="http://www.w3.org/2000/svg">
<path d="M12.5912 23.2584L12.5802 23.2604L12.5092 23.2954L12.4892 23.2994L12.4752 23.2954L12.4042 23.2604C12.3936 23.2571 12.3856 23.2588 12.3802 23.2654L12.3762 23.2754L12.3592 23.7034L12.3642 23.7234L12.3742 23.7364L12.4782 23.8104L12.4932 23.8144L12.5052 23.8104L12.6092 23.7364L12.6212 23.7204L12.6252 23.7034L12.6082 23.2764C12.6056 23.2658 12.5999 23.2598 12.5912 23.2584ZM12.8562 23.1454L12.8432 23.1474L12.6582 23.2404L12.6482 23.2504L12.6452 23.2614L12.6632 23.6914L12.6682 23.7034L12.6762 23.7104L12.8772 23.8034C12.8899 23.8068 12.8996 23.8041 12.9062 23.7954L12.9102 23.7814L12.8762 23.1674C12.8729 23.1554 12.8662 23.1481 12.8562 23.1454ZM12.1412 23.1474C12.1368 23.1448 12.1315 23.1439 12.1265 23.145C12.1215 23.1461 12.1171 23.1491 12.1142 23.1534L12.1082 23.1674L12.0742 23.7814C12.0749 23.7934 12.0806 23.8014 12.0912 23.8054L12.1062 23.8034L12.3072 23.7104L12.3172 23.7024L12.3212 23.6914L12.3382 23.2614L12.3352 23.2494L12.3252 23.2394L12.1412 23.1474Z" fill="#717B97"/>
<path d="M12 2C17.523 2 22 6.477 22 12C22 17.523 17.523 22 12 22C6.477 22 2 17.523 2 12C2 6.477 6.477 2 12 2ZM12 6C11.7348 6 11.4804 6.10536 11.2929 6.29289C11.1054 6.48043 11 6.73478 11 7V12C11.0001 12.2652 11.1055 12.5195 11.293 12.707L14.293 15.707C14.4816 15.8892 14.7342 15.99 14.9964 15.9877C15.2586 15.9854 15.5094 15.8802 15.6948 15.6948C15.8802 15.5094 15.9854 15.2586 15.9877 14.9964C15.99 14.7342 15.8892 14.4816 15.707 14.293L13 11.586V7C13 6.73478 12.8946 6.48043 12.7071 6.29289C12.5196 6.10536 12.2652 6 12 6Z" fill="#717B97"/>
</svg>
