<svg width="28" height="29" viewBox="0 0 28 29" fill="none" xmlns="http://www.w3.org/2000/svg">
<path d="M0 25.6857V10.7714C0 10.2467 0.12425 9.74952 0.37275 9.28C0.62125 8.81048 0.963667 8.42381 1.4 8.12L11.9 0.662857C12.5125 0.220952 13.2125 0 14 0C14.7875 0 15.4875 0.220952 16.1 0.662857L26.6 8.12C27.0375 8.42381 27.3805 8.81048 27.629 9.28C27.8775 9.74952 28.0012 10.2467 28 10.7714V25.6857C28 26.5971 27.657 27.3777 26.971 28.0273C26.285 28.6769 25.4613 29.0011 24.5 29H19.25C18.7542 29 18.3388 28.8409 18.004 28.5227C17.6692 28.2046 17.5012 27.8113 17.5 27.3429V19.0571C17.5 18.5876 17.332 18.1943 16.996 17.8773C16.66 17.5602 16.2447 17.4011 15.75 17.4H12.25C11.7542 17.4 11.3388 17.5591 11.004 17.8773C10.6692 18.1954 10.5012 18.5887 10.5 19.0571V27.3429C10.5 27.8124 10.332 28.2062 9.996 28.5244C9.66 28.8426 9.24467 29.0011 8.75 29H3.5C2.5375 29 1.71383 28.6757 1.029 28.0273C0.344166 27.3788 0.00116667 26.5982 0 25.6857Z" fill="white"/>
</svg>
