<svg width="38" height="38" viewBox="0 0 38 38" fill="none" xmlns="http://www.w3.org/2000/svg">
<path d="M19.6448 3.93153C20.1869 3.78585 20.7523 3.74842 21.3088 3.82138C21.8653 3.89434 22.402 4.07626 22.8882 4.35676C23.3744 4.63725 23.8006 5.01081 24.1424 5.45611C24.4842 5.90141 24.735 6.40971 24.8805 6.95199L30.118 26.4995C30.2632 27.0418 30.3003 27.6075 30.227 28.1642C30.1536 28.7208 29.9714 29.2576 29.6906 29.7438C29.4099 30.23 29.0361 30.6561 28.5907 30.9977C28.1453 31.3394 27.6369 31.5899 27.0947 31.7349L18.3687 34.0715C17.274 34.3645 16.1078 34.2104 15.1267 33.6433C14.1455 33.0761 13.4298 32.1423 13.1369 31.0473L7.90509 11.5074C7.61212 10.4128 7.76559 9.24672 8.33179 8.26534C8.89799 7.28396 9.83056 6.56763 10.9245 6.27381L19.6448 3.93153ZM24.1075 25.2267C24.01 24.8617 23.7716 24.5504 23.4447 24.3613C23.1178 24.1721 22.7291 24.1206 22.3642 24.218L18.6953 25.202L18.513 25.2647C18.1837 25.4068 17.9201 25.6679 17.7748 25.9959C17.6296 26.3239 17.6134 26.6946 17.7294 27.0341C17.8455 27.3735 18.0853 27.6567 18.401 27.827C18.7166 27.9973 19.0849 28.0422 19.4322 27.9527L23.1011 26.9706L23.2853 26.9079C23.6029 26.7745 23.8614 26.5305 24.013 26.221C24.1645 25.9115 24.1988 25.5576 24.1094 25.2248M31.6846 0.743904C31.7741 0.579426 31.8951 0.434197 32.0407 0.316523C32.1863 0.198848 32.3536 0.111037 32.5332 0.058108C32.7127 0.00517931 32.9009 -0.0118281 33.087 0.00805871C33.2732 0.0279455 33.4535 0.0843363 33.6179 0.174006C34.2236 0.506447 35.0497 1.14283 35.8644 2.13256C36.6848 3.12988 37.3171 4.30577 37.6799 5.66592C38.1716 7.49232 38.0954 9.42522 37.4615 11.2072C37.3078 11.655 37.1126 12.0875 36.8785 12.499C36.6907 12.8075 36.3928 13.0331 36.0451 13.1302C35.6973 13.2274 35.3257 13.1888 35.0053 13.0223C34.6849 12.8558 34.4397 12.5737 34.3193 12.2333C34.1989 11.8928 34.2122 11.5193 34.3566 11.1882L34.4458 11.0173C35.173 9.59226 35.3455 7.94799 34.9301 6.40299C34.6914 5.50205 34.2606 4.66347 33.6672 3.94483C33.107 3.26665 32.562 2.84493 32.2525 2.67586C31.9209 2.49515 31.6746 2.19013 31.5678 1.82786C31.461 1.46558 31.5042 1.0757 31.6846 0.743904ZM29.4457 4.63821C29.6749 4.338 30.0139 4.14115 30.3882 4.09092C30.7625 4.04069 31.1414 4.1412 31.4416 4.37035C31.784 4.63984 32.0892 4.95348 32.3493 5.30309C32.7063 5.7761 32.9836 6.30041 33.1393 6.8817C33.3615 7.71186 33.3159 8.53821 33.1146 9.32087L33.0159 9.65711C32.9884 9.74109 32.958 9.8241 32.9247 9.90596C32.7866 10.241 32.526 10.5108 32.196 10.6604C31.866 10.81 31.4914 10.8282 31.1485 10.7113C30.8056 10.5944 30.5201 10.3511 30.3502 10.031C30.1802 9.71095 30.1386 9.33812 30.2338 8.98843L30.3287 8.70728C30.3389 8.68068 30.3477 8.64902 30.3553 8.61229C30.4446 8.26466 30.4655 7.90752 30.3876 7.61877C30.3247 7.40208 30.2195 7.2 30.0781 7.02418C29.9877 6.90446 29.8873 6.79262 29.778 6.68984L29.7154 6.63665C29.415 6.40764 29.2178 6.06865 29.1672 5.69424C29.1167 5.31982 29.2168 4.93875 29.4457 4.63821ZM1.03443 25.4775C1.21437 25.1635 1.50703 24.9297 1.85298 24.8237C2.19894 24.7177 2.57225 24.7474 2.89712 24.9068C3.22198 25.0661 3.47405 25.3432 3.60212 25.6817C3.7302 26.0202 3.72469 26.3948 3.58671 26.7293L3.40631 27.096C2.80016 28.4956 2.68766 30.0597 3.08727 31.5317C3.34174 32.4815 3.77662 33.3079 4.34253 34.0183C4.83247 34.63 5.31103 35.0423 5.63386 35.2569L5.76109 35.3367C5.92438 35.4296 6.06769 35.5538 6.18277 35.7023C6.29786 35.8508 6.38244 36.0206 6.43165 36.202C6.48087 36.3833 6.49374 36.5726 6.46953 36.7589C6.44532 36.9452 6.3845 37.1249 6.29059 37.2876C6.19667 37.4504 6.0715 37.5929 5.92229 37.707C5.77308 37.8212 5.60278 37.9046 5.42119 37.9527C5.23959 38.0007 5.0503 38.0123 4.8642 37.9869C4.6781 37.9614 4.49887 37.8994 4.33683 37.8044C3.73864 37.4586 2.92206 36.8032 2.11877 35.7964C1.28364 34.7586 0.676088 33.5567 0.335588 32.2688C-0.16148 30.4485 -0.105285 28.5213 0.497005 26.7331C0.686907 26.1632 0.884405 25.7377 1.03443 25.4794M5.08884 28.0363C5.22795 27.7042 5.48757 27.4372 5.81552 27.2888C6.14346 27.1404 6.5154 27.1218 6.85654 27.2366C7.19768 27.3514 7.48272 27.5911 7.65435 27.9076C7.82598 28.224 7.87146 28.5938 7.78165 28.9424L7.6886 29.2236L7.66391 29.3186C7.57374 29.6431 7.56331 29.9846 7.63353 30.314C7.68797 30.5116 7.79115 30.7117 7.94307 30.9143C8.05701 31.0644 8.16716 31.1802 8.24312 31.2524L8.30578 31.3056C8.59431 31.5398 8.77996 31.8774 8.82314 32.2465C8.86632 32.6156 8.7636 32.987 8.5369 33.2815C8.3102 33.5759 7.97747 33.7701 7.60967 33.8226C7.24188 33.875 6.86814 33.7817 6.56818 33.5624C6.22755 33.2914 5.92424 32.9765 5.66614 32.6259C5.30519 32.1574 5.03881 31.6232 4.88185 31.053C4.67645 30.2533 4.683 29.4139 4.90084 28.6176L4.99959 28.2833C5.02648 28.1999 5.05625 28.1176 5.08884 28.0363Z" fill="white"/>
</svg>
